<svg xmlns="http://www.w3.org/2000/svg" width="1200" height="630" viewBox="0 0 1200 630">
<rect width="1200" height="630" fill="#092e32"/><circle cx="1070" cy="80" r="250" fill="#10454a"/>
<text x="68" y="88" fill="#55d6bb" font-family="sans-serif" font-weight="700" font-size="30">S-IE · GUIES / GUÍAS</text>
<text x="68" y="160" fill="white" font-family="sans-serif" font-weight="700" font-size="52">FRONTAL</text>
<text x="68" y="208" fill="#bfd7d5" font-family="sans-serif" font-size="24">PAPER / PAPEL · PP · PE · PET</text>
<g transform="translate(75 250)">
<path d="M0 190 L360 190 L480 245 L120 245 Z" fill="#acc5c8"/><path d="M0 112 L360 112 L480 167 L120 167 Z" fill="#72aa9f"/>
<path d="M0 30 L360 30 L480 85 L120 85 Z" fill="#55d6bb"/>
<g stroke="#123e41" stroke-width="5"><path d="M85 48 l160 0"/><path d="M110 60 l110 0"/><path d="M290 48 l70 0"/></g>
<g stroke="#769a9e" stroke-width="2" fill="none"><path d="M510 62 H560"/><path d="M510 142 H560"/><path d="M510 222 H560"/></g>
<g font-family="sans-serif" font-size="25" fill="white"><text x="580" y="70">Frontal</text><text x="580" y="150">Adhesiu / Adhesivo</text><text x="580" y="230">Liner</text></g></g>
<text x="68" y="582" fill="#bfd7d5" font-family="sans-serif" font-size="22">etiquetes.s-ie.cat</text></svg>
